# xmcd
#
# Track frame offsets: 
#        150
#        19554
#        37167
#        54758
#        70813
#        91339
#        111664
#        129625
#        147985
#
# Disc length: 2192 seconds
#
# Revision: 0
# Processed by: cddbd v1.5.2PL0 Copyright (c) Steve Scherf et al.
# Submitted via: ExactAudioCopyFreeDBPlugin 1.0
#
DISCID=7d088e09
DTITLE=Zumba Fitness - ZIN 40
DYEAR=2012
DGENRE=Dance
TTITLE0=Villanosam ft Armarfis - Me Va Quema El Celular
TTITLE1=Vamos Pa’ La Pista
TTITLE2=La Suavecita
TTITLE3=KLC Clave Cubana - Fuera De Control
TTITLE4=Maria
TTITLE5=KBC feat. Lady Lauryn - Getting Nasty
TTITLE6=Coisa Brasileira
TTITLE7=Ponte Los Tenis
TTITLE8=Save Paris - Come On Eileen
EXTD=
EXTT0=
EXTT1=
EXTT2=
EXTT3=
EXTT4=
EXTT5=
EXTT6=
EXTT7=
EXTT8=
PLAYORDER=
